Coordinates
version=1
nRows=24
nColumns=38
inDegrees=no

Units are S.I. units (second, meters, Newtons, ...)
If the header above contains a line with 'inDegrees', this indicates whether rotational values are in degrees (yes) or radians (no).

endheader
time	pelvis_tilt	pelvis_list	pelvis_rotation	pelvis_tx	pelvis_ty	pelvis_tz	hip_flexion_r	hip_adduction_r	hip_rotation_r	knee_angle_r	ankle_angle_r	subtalar_angle_r	mtp_angle_r	hip_flexion_l	hip_adduction_l	hip_rotation_l	knee_angle_l	ankle_angle_l	subtalar_angle_l	mtp_angle_l	lumbar_extension	lumbar_bending	lumbar_rotation	arm_flex_r	arm_add_r	arm_rot_r	elbow_flex_r	pro_sup_r	wrist_flex_r	wrist_dev_r	arm_flex_l	arm_add_l	arm_rot_l	elbow_flex_l	pro_sup_l	wrist_flex_l	wrist_dev_l
1.4	2.07068	1.4695	-0.468069	0.733959	0.664121	0.922534	0.249969	0.0599208	-0.311517	0.371429	0.0792839	0	0	-0.00386176	-0.281765	-0.194953	1.05516	-0.168885	0	0	-0.125702	0.18015	-0.0475857	-0.0828825	-0.373555	0.405763	0.647035	1.27458	0	0	-0.0610789	-0.276836	0.599102	0.588356	0.885593	0	0
1.41	2.14347	1.46993	-0.545665	0.736107	0.674212	0.924949	0.228273	0.0607807	-0.30325	0.366245	0.086298	0	0	0.0150689	-0.279666	-0.185138	1.08885	-0.147751	0	0	-0.133831	0.174671	-0.0380288	-0.0772884	-0.375248	0.404215	0.649997	1.27514	0	0	-0.0680438	-0.275397	0.609575	0.586596	0.887281	0	0
1.42	2.22361	1.47094	-0.630799	0.73818	0.684113	0.927424	0.205747	0.0599631	-0.29579	0.358886	0.0925529	0	0	0.0336434	-0.2753	-0.176988	1.11858	-0.122835	0	0	-0.142008	0.16754	-0.0289315	-0.0707508	-0.376469	0.402043	0.652344	1.27706	0	0	-0.0751218	-0.274356	0.618622	0.586392	0.891156	0	0
1.43	2.30416	1.47245	-0.715778	0.740159	0.69387	0.929858	0.183328	0.0578386	-0.289831	0.349751	0.0979429	0	0	0.0521402	-0.269753	-0.170355	1.14155	-0.10242	0	0	-0.149156	0.159288	-0.0207512	-0.0642994	-0.376233	0.395317	0.653991	1.28201	0	0	-0.0820278	-0.273704	0.627133	0.586726	0.896938	0	0
1.44	2.38473	1.47416	-0.800386	0.742077	0.70348	0.932219	0.161386	0.054866	-0.285082	0.339572	0.102547	0	0	0.0703878	-0.263699	-0.165505	1.15778	-0.0873483	0	0	-0.155439	0.150426	-0.0134217	-0.0576412	-0.376101	0.389581	0.656176	1.2851	0	0	-0.0890406	-0.272869	0.63208	0.587752	0.900885	0	0
1.45	2.46313	1.47614	-0.882565	0.743916	0.712957	0.934435	0.140103	0.0516031	-0.280078	0.327978	0.10629	0	0	0.0889677	-0.25728	-0.162327	1.16881	-0.0751009	0	0	-0.160571	0.141221	-0.00642541	-0.051726	-0.37552	0.380732	0.659431	1.29069	0	0	-0.0957407	-0.272615	0.637143	0.590196	0.90526	0	0
1.46	2.5408	1.47835	-0.96393	0.745671	0.722335	0.936482	0.119791	0.0479492	-0.275488	0.315917	0.109484	0	0	0.10766	-0.250569	-0.161083	1.17516	-0.0643672	0	0	-0.164516	0.131812	0.000409498	-0.0468042	-0.374759	0.369576	0.664308	1.29717	0	0	-0.10224	-0.272989	0.643554	0.593364	0.91036	0	0
1.47	2.61664	1.4809	-1.04365	0.747367	0.731588	0.938342	0.100839	0.0439308	-0.271414	0.303714	0.111893	0	0	0.126609	-0.243849	-0.162034	1.17699	-0.0553506	0	0	-0.167251	0.122408	0.00749844	-0.0428695	-0.374557	0.357974	0.671457	1.3038	0	0	-0.108374	-0.273821	0.650688	0.597425	0.915589	0	0
1.48	2.68911	1.48378	-1.12012	0.749028	0.740789	0.940023	0.0830831	0.0397865	-0.268455	0.291174	0.113583	0	0	0.14569	-0.237485	-0.165053	1.17418	-0.0485919	0	0	-0.168676	0.113256	0.0148464	-0.040142	-0.374937	0.346245	0.68091	1.3108	0	0	-0.114459	-0.274574	0.656344	0.602432	0.920262	0	0
1.49	2.7699	1.48617	-1.20581	0.750636	0.750022	0.94163	0.0655037	0.0348148	-0.265344	0.279002	0.115158	0	0	0.162813	-0.230785	-0.17099	1.16632	-0.0429552	0	0	-0.170052	0.103915	0.0227867	-0.0380242	-0.37644	0.336546	0.692485	1.31565	0	0	-0.120766	-0.274968	0.659726	0.608135	0.923569	0	0
1.5	2.85306	1.48795	-1.2947	0.752275	0.759232	0.943095	0.0483622	0.029893	-0.260875	0.267342	0.116881	0	0	0.178515	-0.224972	-0.180396	1.15443	-0.0363214	0	0	-0.171263	0.0946474	0.0311866	-0.0362284	-0.37795	0.327017	0.705105	1.31875	0	0	-0.127195	-0.27545	0.66152	0.614725	0.926483	0	0
1.51	2.93763	1.48874	-1.38597	0.753949	0.768307	0.944436	0.0316391	0.0249952	-0.254626	0.256709	0.118936	0	0	0.192597	-0.22008	-0.193188	1.13898	-0.0272336	0	0	-0.173182	0.0855192	0.0403623	-0.0344914	-0.379688	0.317362	0.71894	1.32097	0	0	-0.133379	-0.27592	0.661614	0.622148	0.93007	0	0
1.52	3.02264	1.48869	-1.47836	0.755594	0.777264	0.945645	0.0156685	0.0196356	-0.248342	0.247518	0.121769	0	0	0.205144	-0.215581	-0.208773	1.11991	-0.0170641	0	0	-0.175591	0.0764855	0.0499978	-0.0326779	-0.381871	0.308058	0.733492	1.3224	0	0	-0.13955	-0.276042	0.659786	0.630292	0.932191	0	0
1.53	3.10367	1.48785	-1.5662	0.757178	0.786234	0.946713	-0.000145871	0.0142714	-0.242868	0.239094	0.125227	0	0	0.216408	-0.211581	-0.225787	1.09715	-0.00685839	0	0	-0.178041	0.0677219	0.0588797	-0.0305378	-0.384336	0.300777	0.747839	1.32301	0	0	-0.14567	-0.276194	0.655868	0.63891	0.931952	0	0
1.54	-3.10311	1.48537	-1.64885	0.7587	0.795316	0.947734	-0.0176031	0.00906993	-0.236662	0.230092	0.128043	0	0	0.2247	-0.207789	-0.244486	1.07002	0.0023374	0	0	-0.181417	0.0590453	0.0671436	-0.0284787	-0.387282	0.29557	0.762614	1.32291	0	0	-0.151774	-0.276312	0.648956	0.64796	0.928415	0	0
1.55	-3.03778	1.48118	-1.72046	0.760091	0.804394	0.948696	-0.0362874	0.00391036	-0.230069	0.221307	0.130113	0	0	0.230062	-0.204006	-0.264526	1.03902	0.0105839	0	0	-0.186119	0.0508175	0.075292	-0.0256478	-0.390487	0.291475	0.776015	1.3213	0	0	-0.15724	-0.276181	0.643602	0.656379	0.925951	0	0
1.56	-2.98189	1.47527	-1.78324	0.761394	0.813359	0.949618	-0.0559092	-0.00172496	-0.22241	0.213266	0.1322	0	0	0.23211	-0.199766	-0.286757	1.00363	0.0181004	0	0	-0.192685	0.0425262	0.0839993	-0.0223319	-0.394079	0.287823	0.789398	1.31726	0	0	-0.161313	-0.27646	0.644848	0.663999	0.933968	0	0
1.57	-2.94053	1.47007	-1.82979	0.762559	0.822282	0.950287	-0.0746305	-0.00641016	-0.216508	0.205625	0.134663	0	0	0.234549	-0.19606	-0.30883	0.965607	0.0257496	0	0	-0.198452	0.0353537	0.0905617	-0.0177855	-0.397514	0.286902	0.800824	1.31258	0	0	-0.165171	-0.27593	0.641085	0.670584	0.940846	0	0
1.58	-2.90794	1.46528	-1.86662	0.763609	0.831191	0.950756	-0.0928609	-0.0106315	-0.211451	0.198137	0.137671	0	0	0.236338	-0.192352	-0.331691	0.924419	0.033479	0	0	-0.203859	0.0288862	0.0959999	-0.0125498	-0.400863	0.287617	0.81084	1.3078	0	0	-0.16852	-0.274977	0.634995	0.676506	0.943586	0	0
1.59	-2.87979	1.46053	-1.89929	0.764558	0.840045	0.951047	-0.110629	-0.0149982	-0.206134	0.191327	0.14181	0	0	0.236511	-0.187958	-0.355996	0.87935	0.0410195	0	0	-0.20932	0.0226163	0.101367	-0.00656145	-0.404497	0.289955	0.819778	1.30353	0	0	-0.170959	-0.273377	0.627629	0.681295	0.941639	0	0
1.6	-2.85399	1.45633	-1.9298	0.76538	0.848824	0.951097	-0.127206	-0.0195493	-0.201193	0.185607	0.146802	0	0	0.235826	-0.182603	-0.38079	0.830454	0.046995	0	0	-0.214269	0.0165842	0.106749	-0.000118752	-0.408118	0.292847	0.827781	1.29983	0	0	-0.172428	-0.271465	0.621348	0.685145	0.938245	0	0
1.61	-2.83073	1.45469	-1.95433	0.765813	0.857734	0.950701	-0.141452	-0.0229034	-0.20106	0.180495	0.15279	0	0	0.238277	-0.176454	-0.401776	0.780033	0.0522504	0	0	-0.216127	0.0121889	0.108901	0.00573524	-0.410503	0.294467	0.834103	1.29842	0	0	-0.173392	-0.269917	0.617924	0.687864	0.936629	0	0
1.62	-2.80637	1.45285	-1.97937	0.766098	0.866622	0.950149	-0.155455	-0.0266947	-0.201482	0.175907	0.15946	0	0	0.239347	-0.168561	-0.423497	0.725645	0.0549057	0	0	-0.218218	0.00760161	0.11036	0.0116928	-0.412967	0.29727	0.840089	1.29691	0	0	-0.173433	-0.268148	0.614557	0.689696	0.934914	0	0
1.63	-2.78272	1.45158	-2.00377	0.766263	0.875397	0.949376	-0.167939	-0.0304741	-0.201755	0.172654	0.166763	0	0	0.240158	-0.159611	-0.445859	0.668334	0.0562557	0	0	-0.220077	0.00334182	0.111667	0.0182061	-0.415786	0.301788	0.845425	1.29484	0	0	-0.172383	-0.265822	0.610934	0.690179	0.932254	0	0
